<?xml version="1.0" encoding="utf-8"?>
<!-- Generator: Adobe Illustrator 25.2.3, SVG Export Plug-In . SVG Version: 6.00 Build 0)  -->
<svg version="1.1" id="Шар_1" xmlns="http://www.w3.org/2000/svg" xmlns:xlink="http://www.w3.org/1999/xlink" x="0px" y="0px"
	 viewBox="0 0 1000 1000" style="enable-background:new 0 0 1000 1000;" xml:space="preserve">
<style type="text/css">
	.st0{fill-rule:evenodd;clip-rule:evenodd;fill:#202033;}
	.st1{fill-rule:evenodd;clip-rule:evenodd;fill:#FFFFFF;}
</style>
<g id="layer1" transform="translate(-29.452003,-63.380569)">
	<circle id="path853" class="st0" cx="529.45" cy="563.38" r="500"/>
	<path class="st1" d="M391.62,358.81v204.74c0,75.78,61.43,137.21,137.21,137.21c75.78,0,137.21-61.43,137.21-137.21
		c0-75.78-61.43-137.21-137.21-137.21c-20.92,0.03-42.58,6.69-60.34,18.72v-86.25L391.62,358.81z M528.83,503.21
		c33.33,0,60.34,27.02,60.34,60.35c0,33.33-27.02,60.34-60.34,60.34c-33.33,0-60.34-27.02-60.34-60.34
		C468.49,530.22,495.5,503.21,528.83,503.21z M372.44,698.44V563.55c0-75.78-61.43-137.21-137.21-137.21
		c-75.78,0-137.21,61.43-137.21,137.21c0,75.78,61.43,137.21,137.21,137.21c22.36-0.03,45.54-9.53,61.87-25.33v23.01L372.44,698.44z
		 M235.23,623.89c-33.33,0-60.34-27.02-60.34-60.35c0-33.33,27.02-60.34,60.34-60.34c33.33,0,60.34,27.02,60.34,60.34
		C295.57,596.88,268.55,623.89,235.23,623.89L235.23,623.89z M823.03,426.34c-75.78,0-137.21,61.43-137.21,137.21
		c0,75.78,61.43,137.21,137.21,137.21c68.65-0.08,126.68-50.89,135.82-118.92h-78.31c-7.75,24.39-30.56,42.06-57.51,42.06
		c-33.33,0-60.34-27.02-60.34-60.34c0-33.33,27.02-60.34,60.34-60.35c26.95,0,49.77,17.67,57.51,42.06h78.32
		C949.71,477.22,891.68,426.42,823.03,426.34L823.03,426.34z"/>
</g>
</svg>
